<svg xmlns="http://www.w3.org/2000/svg" width="20.687" height="20.273" viewBox="0 0 20.687 20.273">
  <g id="Created" transform="translate(-2176 -1550.718)">
    <path id="Subtraction_7" data-name="Subtraction 7" d="M13.675,20.272H1.744l-.265-.092A2.227,2.227,0,0,1,.091,18.789L0,18.528V1.761L.091,1.5A2.207,2.207,0,0,1,1.744.037C1.83.021,3.854.006,6.453,0h1.74c2.727,0,2.836.011,2.957.072.187.1,4.136,4.054,4.226,4.234a5.411,5.411,0,0,1,.064,1.476H8.722a1,1,0,0,0-1,1v8a1,1,0,0,0,1,1h6.717l-.007,1.058v.036c-.016,1.638-.016,1.7-.1,1.926a2.26,2.26,0,0,1-1.387,1.379l-.265.092ZM11.488,2.059c-.009.019-.013.5-.013.951v.951H13.4l-.951-.951C12,2.561,11.508,2.074,11.488,2.059Z" transform="translate(2176 1550.719)" fill="#596069"/>
    <path id="Path_9458" data-name="Path 9458" d="M136.61,136.326l-4.742,4.741-1.98-1.98a1.1,1.1,0,0,0-1.562,1.562l2.761,2.761a1.1,1.1,0,0,0,1.562,0l5.523-5.523a1.1,1.1,0,0,0-1.562-1.562Z" transform="translate(2058.192 1420.132)" fill="#596069"/>
  </g>
</svg>
