<svg xmlns="http://www.w3.org/2000/svg" width="36" height="36" viewBox="0 0 36 36">
    <defs>
        <style>
            .cls-3{fill:#00ba53}
        </style>
    </defs>
    <g id="Group_8111" transform="translate(-983 -109)">
        <circle id="Ellipse_52" cx="18" cy="18" r="18" fill="#0e82fb" opacity="0.1" transform="translate(983 109)"/>
        <g id="_4305498" transform="translate(930.703 119.259)">
            <path id="Path_7030" fill="#fff" d="M83.723 11.18v11.732a1.02 1.02 0 0 1-1.02 1.02h-9.692a1.02 1.02 0 0 1-1.02-1.02V9.139a1.02 1.02 0 0 1 1.02-1.02h7.651z" transform="translate(-7.745 -7.86)"/>
            <path id="Path_7031" d="M347.052 11.18v11.732a1.02 1.02 0 0 1-1.02 1.02h-1.275a1.02 1.02 0 0 0 1.02-1.02V11.18l-1.785-1.785V8.119z" class="cls-3" transform="translate(-271.073 -7.86)"/>
            <path id="Path_7032" d="M347.052 11.18h-3.061V8.119z" class="cls-3" transform="translate(-271.073 -7.86)"/>
            <path id="Path_7033" fill="#01cc5c" d="M343.991 8.119v1.275l1.785 1.785h1.275z" transform="translate(-271.073 -7.86)"/>
            <path id="Path_7034" d="M136.9 208.119h-7.651a.255.255 0 0 0 0 .51h7.651a.255.255 0 1 0 0-.51z" transform="translate(-62.928 -201.484)"/>
            <path id="Path_7035" d="M136.9 144.119h-7.651a.255.255 0 1 0 0 .51h7.651a.255.255 0 1 0 0-.51z" transform="translate(-62.928 -139.524)"/>
            <path id="Path_7036" d="M136.9 272.119h-7.651a.255.255 0 1 0 0 .51h7.651a.255.255 0 1 0 0-.51z" transform="translate(-62.928 -263.444)"/>
            <path id="Path_7037" d="M136.9 336.119h-7.651a.255.255 0 1 0 0 .51h7.651a.255.255 0 1 0 0-.51z" transform="translate(-62.928 -325.403)"/>
            <path id="Path_7038" d="M134.857 400.119h-5.611a.255.255 0 0 0 0 .51h5.611a.255.255 0 0 0 0-.51z" transform="translate(-62.928 -387.363)"/>
            <path id="Path_7039" fill="#426572" d="M76.186 3.173c-.02-.03-3.086-3.1-3.121-3.122-.1-.071.357-.048-7.8-.048a1.277 1.277 0 0 0-1.275 1.275v13.773a1.277 1.277 0 0 0 1.275 1.275h9.692a1.277 1.277 0 0 0 1.275-1.275c0-12.548.025-11.776-.047-11.879zm-.824-.108h-2.19V.875zm-.4 12.752h-9.696a.766.766 0 0 1-.765-.765V1.279a.766.766 0 0 1 .765-.765h7.4v2.805a.255.255 0 0 0 .255.255h2.805v11.477a.766.766 0 0 1-.768.766z"/>
        </g>
    </g>
</svg>
