<svg xmlns="http://www.w3.org/2000/svg" width="22.118" height="20.273" viewBox="0 0 22.118 20.273">
  <g id="Insigning" transform="translate(-1777 -585.864)">
    <path id="Subtraction_8" data-name="Subtraction 8" d="M13.675,20.272H1.744l-.265-.092A2.227,2.227,0,0,1,.091,18.789L0,18.528V1.761L.091,1.5A2.207,2.207,0,0,1,1.744.037C1.83.021,3.854.006,6.453,0h1.74c2.727,0,2.836.011,2.957.072.067.035.661.606,1.588,1.528a1,1,0,0,0-.017.182v4h-8a1,1,0,0,0-1,1v8a1,1,0,0,0,1,1H15.439l-.007,1.058v.036c-.016,1.638-.016,1.7-.1,1.926a2.26,2.26,0,0,1-1.387,1.379l-.265.092ZM9.423,2.6c-.009.02-.012.523-.012.951V4.5h1.922l-.951-.951C10.021,3.187,9.446,2.613,9.423,2.6Z" transform="translate(1777 585.864)" fill="#596069"/>
    <g id="Insigning-2" data-name="Insigning" transform="translate(6.707 2.227)">
      <path id="Path_9459" data-name="Path 9459" d="M11.367.39a1.334,1.334,0,0,0-1.885,0l-.9.9h0l-.82.82h0L1.708,7.71a.287.287,0,0,0-.022.026l-.005.007-.015.022,0,0L.115,10.949A.643.643,0,0,0,0,11.312a.48.48,0,0,0,.141.342.52.52,0,0,0,.372.1A.767.767,0,0,0,.9,11.611l2.963-1.453,0,0,.021-.015.007-.005a.283.283,0,0,0,.026-.022L9.645,4h0l.82-.82h0l.9-.9A1.335,1.335,0,0,0,11.367.39ZM9.44,3.382,8.375,2.316l.41-.41L9.85,2.972ZM1.908,10.3l-.451-.451.709-1.2.946.946Zm-1.1.646.342-.581.239.239Zm10.145-9.08-.7.7L9.195,1.5l.7-.7a.754.754,0,0,1,1.066,1.066Z" transform="matrix(0.966, -0.259, 0.259, 0.966, 1778.012, 587.013)" fill="#596069"/>
    </g>
  </g>
</svg>
