<svg id="Outbox" xmlns="http://www.w3.org/2000/svg" width="18.6" height="18.6" viewBox="0 0 18.6 18.6">
  <g id="Group_8287" data-name="Group 8287">
    <path id="Path_7076" data-name="Path 7076" d="M134.042,136.229l-3.327,3.327-1.39-1.389a.775.775,0,0,0-1.1,1.1l1.938,1.938a.775.775,0,0,0,1.1,0l3.875-3.875a.775.775,0,0,0-1.1-1.1Z" transform="translate(-121.802 -129.414)" fill="#6ca7fa"/>
    <path id="Path_7077" data-name="Path 7077" d="M17.825,8.525a.775.775,0,0,0-.775.775A7.752,7.752,0,1,1,14.8,3.84a.775.775,0,1,0,1.1-1.092A9.3,9.3,0,1,0,18.6,9.3.775.775,0,0,0,17.825,8.525Z" fill="#6ca7fa"/>
  </g>
</svg>
