<svg xmlns="http://www.w3.org/2000/svg" width="20.018" height="20.273" viewBox="0 0 20.018 20.273">
  <g id="Released" transform="translate(-2176 -1550.718)">
    <path id="Subtraction_7" data-name="Subtraction 7" d="M13.675,20.272H1.744l-.265-.092A2.227,2.227,0,0,1,.091,18.789L0,18.528V1.761L.091,1.5A2.207,2.207,0,0,1,1.744.037C1.83.021,3.854.006,6.453,0h1.74c2.727,0,2.836.011,2.957.072.187.1,4.136,4.054,4.226,4.234a5.411,5.411,0,0,1,.064,1.476H8.722a1,1,0,0,0-1,1v8a1,1,0,0,0,1,1h6.717l-.007,1.058v.036c-.016,1.638-.016,1.7-.1,1.926a2.26,2.26,0,0,1-1.387,1.379l-.265.092ZM11.488,2.059c-.009.019-.013.5-.013.951v.951H13.4l-.951-.951C12,2.561,11.508,2.074,11.488,2.059Z" transform="translate(2176 1550.719)" fill="#596069"/>
    <path id="Union_83" data-name="Union 83" d="M-1799.982-400.645l-2,2.5Zm0,0h0l-2-2.5Z" transform="translate(3995.5 1961.5)" fill="none" stroke="#06131e" stroke-linecap="round" stroke-linejoin="round" stroke-width="1"/>
  </g>
</svg>
