<svg xmlns="http://www.w3.org/2000/svg" width="13.977" height="13.977">
    <path data-name="1621561" d="M12.868 8.872A6.547 6.547 0 0 0 11.2 7.827a.546.546 0 1 0-.443 1 5.46 5.46 0 0 1 1.392.868 2.177 2.177 0 0 1 .737 1.636v1.01a.547.547 0 0 1-.546.546H1.638a.547.547 0 0 1-.546-.546v-1.01a2.177 2.177 0 0 1 .737-1.636A7.675 7.675 0 0 1 6.988 8.08a4.045 4.045 0 1 0-2.461-.838 7.59 7.59 0 0 0-3.419 1.63A3.269 3.269 0 0 0 0 11.329v1.01a1.64 1.64 0 0 0 1.638 1.638h10.7a1.64 1.64 0 0 0 1.638-1.638v-1.01a3.269 3.269 0 0 0-1.108-2.457zM4.04 4.04a2.948 2.948 0 1 1 2.948 2.948A2.952 2.952 0 0 1 4.04 4.04zm0 0" style="fill:#26009c"/>
</svg>
