<svg xmlns="http://www.w3.org/2000/svg" width="18.681" height="22.992" viewBox="0 0 18.681 22.992">
    <defs>
        <style>
            .cls-1{fill:#e7493f}
        </style>
    </defs>
    <g id="_3096673_1_" transform="translate(-48)">
        <path id="Path_7008" d="M64.884 2.874h-3.951v-.719A2.158 2.158 0 0 0 58.777 0H55.9a2.158 2.158 0 0 0-2.155 2.155v.718H49.8A1.8 1.8 0 0 0 48 4.67v2.515a.719.719 0 0 0 .718.718h.393l.621 13.035a2.153 2.153 0 0 0 2.153 2.053H62.8a2.153 2.153 0 0 0 2.153-2.053L65.569 7.9h.393a.719.719 0 0 0 .718-.718V4.67a1.8 1.8 0 0 0-1.796-1.796zm-9.7-.718a.719.719 0 0 1 .718-.718h2.874a.719.719 0 0 1 .718.718v.718h-4.309zM49.437 4.67a.36.36 0 0 1 .359-.359h15.088a.36.36 0 0 1 .359.359v1.8H49.437zm14.076 16.2a.718.718 0 0 1-.718.684h-10.91a.718.718 0 0 1-.718-.684L50.55 7.9h13.581z" class="cls-1"/>
        <path id="Path_7009" d="M240.718 218.777a.719.719 0 0 0 .718-.718v-9.34a.718.718 0 1 0-1.437 0v9.34a.718.718 0 0 0 .719.718z" class="cls-1" transform="translate(-183.378 -198.66)"/>
        <path id="Path_7010" d="M320.718 218.777a.718.718 0 0 0 .718-.718v-9.34a.718.718 0 1 0-1.437 0v9.34a.718.718 0 0 0 .719.718z" class="cls-1" transform="translate(-259.786 -198.66)"/>
        <path id="Path_7011" d="M160.718 218.777a.719.719 0 0 0 .719-.718v-9.34a.718.718 0 1 0-1.437 0v9.34a.718.718 0 0 0 .718.718z" class="cls-1" transform="translate(-106.971 -198.66)"/>
    </g>
</svg>
