<svg id="Group_8319" data-name="Group 8319" xmlns="http://www.w3.org/2000/svg" width="159.258" height="33.579">
    <defs>
        <linearGradient id="linear-gradient" x1=".5" x2=".5" y2="1" gradientUnits="objectBoundingBox">
            <stop offset="0" stop-color="#26009c"/>
            <stop offset="1" stop-color="#4db151"/>
        </linearGradient>
        <style>
            .cls-1{fill:#26009c}.cls-3{fill:#4db151}
        </style>
    </defs>
    <g id="Group_31" data-name="Group 31">
        <path id="Exclusion_16" data-name="Exclusion 16" class="cls-1" d="M13.314 25.456a26.264 26.264 0 0 1-5.271-.475 10.853 10.853 0 0 1-4.42-1.833 8.4 8.4 0 0 1-2.717-3.933 16.655 16.655 0 0 1-.875-4.753 26.942 26.942 0 0 1 .354-5.794 12.313 12.313 0 0 1 2.367-4.384 11.532 11.532 0 0 1 3.676-2.948 13.166 13.166 0 0 1 6-1.336 18.894 18.894 0 0 1 2.507.174c3.646.491 6.3 1.908 7.883 4.213a9.159 9.159 0 0 1 1.292 2.856 11.685 11.685 0 0 1 .373 2.692 12.137 12.137 0 0 1-.234 2.786H6.521a10.171 10.171 0 0 0 .192 2.879 7.937 7.937 0 0 0 .946 2.462A6.118 6.118 0 0 0 9.8 20.194a9.331 9.331 0 0 0 4.505.851 27.82 27.82 0 0 0 4.283-.362 22.492 22.492 0 0 0 3.483-.807l-.752 4.845a47.753 47.753 0 0 1-8.005.735zm-.369-21.29a6.12 6.12 0 0 0-3.347.9 5.894 5.894 0 0 0-1.886 1.988 8.062 8.062 0 0 0-1.021 2.888h11.478a6.859 6.859 0 0 0-.1-1.515 5.523 5.523 0 0 0-1.288-2.8 4.98 4.98 0 0 0-3.815-1.462z" transform="translate(0 7.941)"/>
        <path id="Path_289" data-name="Path 289" class="cls-1" d="m2644.046 4768.819 10.083-12.719-7.947-11.738h7.947l4.221 6.7 5.159-6.7h7.385l-9.1 11.738 8.64 12.719h-7.761l-5.233-7.676-5.835 7.676z" transform="translate(-2619.689 -4735.848)"/>
        <path id="Path_290" data-name="Path 290" class="cls-1" d="M2726.9 4764.481c-.157.1-1.246 4.18-1.246 4.18s-7.231.813-10.44-1.322-4.231-9.049 2.18-11.677 12.193-2.294 12.317-5.71-4.506-2.773-4.506-2.773a34.7 34.7 0 0 0-9.4 1.979c.378-2.664.727-4.48.727-4.48s12.823-2.628 17.126-.329 2.626 6.1 2.621 11.9-.48 12.014-.48 12.014H2729l.711-12.6a24.093 24.093 0 0 1-6.077 2.169c-2.2.413-5.363 2.022-4.331 5.811 1.681 2.332 5.202 1.407 7.597.838z" transform="translate(-2660.488 -4735.28)"/>
        <path id="Path_293" data-name="Path 293" class="cls-1" d="M2726.9 4764.481c-.157.1-1.246 4.18-1.246 4.18s-7.231.813-10.44-1.322-4.231-9.049 2.18-11.677 12.193-2.294 12.317-5.71-4.506-2.773-4.506-2.773a34.7 34.7 0 0 0-9.4 1.979c.378-2.664.727-4.48.727-4.48s12.823-2.628 17.126-.329 2.626 6.1 2.621 11.9-.48 12.014-.48 12.014H2729l.711-12.6a24.093 24.093 0 0 1-6.077 2.169c-2.2.413-5.363 2.022-4.331 5.811 1.681 2.332 5.202 1.407 7.597.838z" transform="translate(-2598.444 -4735.28)"/>
        <path id="Path_291" data-name="Path 291" class="cls-1" d="M2782.8 4756.444h6.926s-.056-16.641 1.338-32.97a61.457 61.457 0 0 1-7.265 0z" transform="translate(-2702.12 -4723.474)"/>
        <path id="Path_292" data-name="Path 292" class="cls-1" d="m2829.68 4762.822-.575 5.034s-9.737 2.427-15.205-1.329-4.473-12.078-4.432-12.312 1.549-7.065 6.59-9.7 14.049-.393 14.049-.393v5.33s-5.123-1.9-8.9-.826c-4.526 1.094-8.292 11.149-1.762 14.2 3.932 1.94 10.235-.004 10.235-.004z" transform="translate(-2717.956 -4735.177)"/>
    </g>
    <path id="iconfinder_registered_1608810" class="cls-1" d="M3.358 2.266a.405.405 0 0 0-.193-.39.859.859 0 0 0-.377-.058h-.4v.906h.522a.438.438 0 0 0 .332-.124.465.465 0 0 0 .116-.334zm.168.918.661 1.2a.1.1 0 0 1 0 .1.09.09 0 0 1-.087.052h-.49a.092.092 0 0 1-.09-.055l-.629-1.175h-.5v1.128a.1.1 0 0 1-.1.1h-.435a.1.1 0 0 1-.1-.1V1.341a.1.1 0 0 1 .1-.1H2.8a1.807 1.807 0 0 1 .612.077.836.836 0 0 1 .432.351 1.067 1.067 0 0 1 .158.58 1.046 1.046 0 0 1-.137.533.866.866 0 0 1-.372.353q.023.03.033.049zM2.887.516A2.308 2.308 0 0 0 1.966.7 2.342 2.342 0 0 0 .7 1.966a2.347 2.347 0 0 0 0 1.843 2.342 2.342 0 0 0 1.266 1.262 2.347 2.347 0 0 0 1.843 0 2.342 2.342 0 0 0 1.262-1.262 2.347 2.347 0 0 0 0-1.843A2.342 2.342 0 0 0 3.809.7a2.308 2.308 0 0 0-.922-.184zm2.888 2.371a2.823 2.823 0 0 1-.229 1.121 2.837 2.837 0 0 1-1.537 1.538 2.863 2.863 0 0 1-2.243 0A2.837 2.837 0 0 1 .229 4.009a2.863 2.863 0 0 1 0-2.243A2.837 2.837 0 0 1 1.766.229a2.863 2.863 0 0 1 2.243 0 2.837 2.837 0 0 1 1.537 1.537 2.823 2.823 0 0 1 .229 1.121z" transform="translate(145.55 .463)"/>
    <g id="Group_30" data-name="Group 30" transform="translate(141.237 9.698)">
        <path id="Rectangle_47" data-name="Rectangle 47" class="cls-1" d="M0 0h5.772v5.794H0z"/>
        <path id="Rectangle_49" data-name="Rectangle 49" class="cls-1" transform="translate(5.755 5.794)" d="M0 0h5.773v5.794H0z"/>
        <path id="Rectangle_51" data-name="Rectangle 51" transform="translate(12.249 8.691)" style="fill:url(#linear-gradient)" d="M0 0h5.773v5.794H0z"/>
        <path id="Rectangle_48" data-name="Rectangle 48" class="cls-3" transform="translate(0 18.107)" d="M0 0h5.772v5.775H0z"/>
        <path id="Rectangle_50" data-name="Rectangle 50" class="cls-3" transform="translate(5.755 12.313)" d="M0 0h5.773v5.794H0z"/>
    </g>
</svg>
